# xmcd
#
# Track frame offsets: 
#        183
#        13008
#        25483
#        39283
#        53358
#        67608
#        80775
#        94683
#        109345
#        124233
#        136283
#        156833
#        170433
#        185545
#        197133
#        210483
#
# Disc length: 3000 seconds
#
# Revision: 0
# Processed by: cddbd v1.5.2PL0 Copyright (c) Steve Scherf et al.
# Submitted via: ExactAudioCopy v0.95a3
#
DISCID=d20bb610
DTITLE=Bing Crosby - King Of The Crooners
DYEAR=2005
DGENRE=Blues
TTITLE0=Dinah
TTITLE1=Temptation
TTITLE2=Please
TTITLE3=I've Got The World On A String
TTITLE4=Pennies From Heaven
TTITLE5=How Deep Is The Ocean
TTITLE6=Blue Hawaii
TTITLE7=Thanks
TTITLE8=Did You Ever See A Dream Walking
TTITLE9=I'm An Old Cowhand
TTITLE10=St. Louis Blues
TTITLE11=Where The Blues Of The Night
TTITLE12=Wrap Your Troubles In A Dream
TTITLE13=Some Of These Days
TTITLE14=I Don't Stand A Ghost Of A Chance
TTITLE15=Someday Sweetheart
EXTD=
EXTT0=
EXTT1=
EXTT2=
EXTT3=
EXTT4=
EXTT5=
EXTT6=
EXTT7=
EXTT8=
EXTT9=
EXTT10=
EXTT11=
EXTT12=
EXTT13=
EXTT14=
EXTT15=
PLAYORDER=
